<svg width="142" height="26" viewBox="0 0 142 26" fill="none" xmlns="http://www.w3.org/2000/svg">
<path d="M4.18 21V8.2H0.22V6.1H10.42V8.2H6.52V21H4.18ZM14.0131 21.24C13.2798 21.24 12.6331 21.1133 12.0731 20.86C11.5265 20.5933 11.0998 20.2333 10.7931 19.78C10.4865 19.3133 10.3331 18.7667 10.3331 18.14C10.3331 17.5533 10.4598 17.0267 10.7131 16.56C10.9798 16.0933 11.3865 15.7 11.9331 15.38C12.4798 15.06 13.1665 14.8333 13.9931 14.7L17.7531 14.08V15.86L14.4331 16.44C13.8331 16.5467 13.3931 16.74 13.1131 17.02C12.8331 17.2867 12.6931 17.6333 12.6931 18.06C12.6931 18.4733 12.8465 18.8133 13.1531 19.08C13.4731 19.3333 13.8798 19.46 14.3731 19.46C14.9865 19.46 15.5198 19.3267 15.9731 19.06C16.4398 18.7933 16.7998 18.44 17.0531 18C17.3065 17.5467 17.4331 17.0467 17.4331 16.5V13.72C17.4331 13.1867 17.2331 12.7533 16.8331 12.42C16.4465 12.0733 15.9265 11.9 15.2731 11.9C14.6731 11.9 14.1465 12.06 13.6931 12.38C13.2531 12.6867 12.9265 13.0867 12.7131 13.58L10.8331 12.64C11.0331 12.1067 11.3598 11.64 11.8131 11.24C12.2665 10.8267 12.7931 10.5067 13.3931 10.28C14.0065 10.0533 14.6531 9.94 15.3331 9.94C16.1865 9.94 16.9398 10.1 17.5931 10.42C18.2598 10.74 18.7731 11.1867 19.1331 11.76C19.5065 12.32 19.6931 12.9733 19.6931 13.72V21H17.5331V19.04L17.9931 19.1C17.7398 19.54 17.4131 19.92 17.0131 20.24C16.6265 20.56 16.1798 20.8067 15.6731 20.98C15.1798 21.1533 14.6265 21.24 14.0131 21.24ZM22.3356 21V5.86H24.5956V21H22.3356ZM27.238 21V5.86H29.498V16L28.618 15.78L34.038 10.18H36.858L32.778 14.52L37.038 21H34.438L30.638 15.26L31.978 15.08L28.778 18.48L29.498 16.98V21H27.238ZM38.5856 21V10.18H40.8456V21H38.5856ZM38.5856 8.7V6.1H40.8456V8.7H38.5856ZM43.488 21V10.18H45.648V12.3L45.388 12.02C45.6546 11.34 46.0813 10.8267 46.668 10.48C47.2546 10.12 47.9346 9.94 48.708 9.94C49.508 9.94 50.2146 10.1133 50.828 10.46C51.4413 10.8067 51.9213 11.2867 52.268 11.9C52.6146 12.5133 52.788 13.22 52.788 14.02V21H50.548V14.62C50.548 14.0733 50.448 13.6133 50.248 13.24C50.048 12.8533 49.7613 12.56 49.388 12.36C49.028 12.1467 48.6146 12.04 48.148 12.04C47.6813 12.04 47.2613 12.1467 46.888 12.36C46.528 12.56 46.248 12.8533 46.048 13.24C45.848 13.6267 45.748 14.0867 45.748 14.62V21H43.488ZM60.4267 25.4C59.6401 25.4 58.9134 25.2733 58.2467 25.02C57.5801 24.7667 57.0067 24.4133 56.5267 23.96C56.0467 23.52 55.6867 23 55.4467 22.4L57.5267 21.54C57.7134 22.0467 58.0534 22.4667 58.5467 22.8C59.0534 23.1333 59.6734 23.3 60.4067 23.3C60.9801 23.3 61.4934 23.1867 61.9467 22.96C62.4001 22.7467 62.7601 22.4267 63.0267 22C63.2934 21.5867 63.4267 21.0867 63.4267 20.5V18.06L63.8267 18.52C63.4534 19.2133 62.9334 19.74 62.2667 20.1C61.6134 20.46 60.8734 20.64 60.0467 20.64C59.0467 20.64 58.1467 20.4067 57.3467 19.94C56.5467 19.4733 55.9134 18.8333 55.4467 18.02C54.9934 17.2067 54.7667 16.2933 54.7667 15.28C54.7667 14.2533 54.9934 13.34 55.4467 12.54C55.9134 11.74 56.5401 11.1067 57.3267 10.64C58.1134 10.1733 59.0134 9.94 60.0267 9.94C60.8534 9.94 61.5867 10.12 62.2267 10.48C62.8801 10.8267 63.4134 11.3333 63.8267 12L63.5267 12.56V10.18H65.6667V20.5C65.6667 21.4333 65.4401 22.2667 64.9867 23C64.5467 23.7467 63.9334 24.3333 63.1467 24.76C62.3601 25.1867 61.4534 25.4 60.4267 25.4ZM60.3067 18.54C60.9067 18.54 61.4401 18.4 61.9067 18.12C62.3734 17.8267 62.7401 17.44 63.0067 16.96C63.2867 16.4667 63.4267 15.9133 63.4267 15.3C63.4267 14.6867 63.2867 14.1333 63.0067 13.64C62.7267 13.1467 62.3534 12.76 61.8867 12.48C61.4201 12.1867 60.8934 12.04 60.3067 12.04C59.6934 12.04 59.1467 12.1867 58.6667 12.48C58.1867 12.76 57.8067 13.1467 57.5267 13.64C57.2601 14.12 57.1267 14.6733 57.1267 15.3C57.1267 15.9 57.2601 16.4467 57.5267 16.94C57.8067 17.4333 58.1867 17.8267 58.6667 18.12C59.1467 18.4 59.6934 18.54 60.3067 18.54ZM72.0283 21V6.1H81.7283V8.2H74.3883V12.68H80.9283V14.78H74.3883V21H72.0283ZM83.488 21V10.18H85.748V21H83.488ZM83.488 8.7V6.1H85.748V8.7H83.488ZM88.3903 21V10.18H90.5503V12.3L90.2903 12.02C90.557 11.34 90.9836 10.8267 91.5703 10.48C92.157 10.12 92.837 9.94 93.6103 9.94C94.4103 9.94 95.117 10.1133 95.7303 10.46C96.3436 10.8067 96.8236 11.2867 97.1703 11.9C97.517 12.5133 97.6903 13.22 97.6903 14.02V21H95.4503V14.62C95.4503 14.0733 95.3503 13.6133 95.1503 13.24C94.9503 12.8533 94.6636 12.56 94.2903 12.36C93.9303 12.1467 93.517 12.04 93.0503 12.04C92.5836 12.04 92.1636 12.1467 91.7903 12.36C91.4303 12.56 91.1503 12.8533 90.9503 13.24C90.7503 13.6267 90.6503 14.0867 90.6503 14.62V21H88.3903ZM105.329 25.4C104.542 25.4 103.816 25.2733 103.149 25.02C102.482 24.7667 101.909 24.4133 101.429 23.96C100.949 23.52 100.589 23 100.349 22.4L102.429 21.54C102.616 22.0467 102.956 22.4667 103.449 22.8C103.956 23.1333 104.576 23.3 105.309 23.3C105.882 23.3 106.396 23.1867 106.849 22.96C107.302 22.7467 107.662 22.4267 107.929 22C108.196 21.5867 108.329 21.0867 108.329 20.5V18.06L108.729 18.52C108.356 19.2133 107.836 19.74 107.169 20.1C106.516 20.46 105.776 20.64 104.949 20.64C103.949 20.64 103.049 20.4067 102.249 19.94C101.449 19.4733 100.816 18.8333 100.349 18.02C99.8957 17.2067 99.6691 16.2933 99.6691 15.28C99.6691 14.2533 99.8957 13.34 100.349 12.54C100.816 11.74 101.442 11.1067 102.229 10.64C103.016 10.1733 103.916 9.94 104.929 9.94C105.756 9.94 106.489 10.12 107.129 10.48C107.782 10.8267 108.316 11.3333 108.729 12L108.429 12.56V10.18H110.569V20.5C110.569 21.4333 110.342 22.2667 109.889 23C109.449 23.7467 108.836 24.3333 108.049 24.76C107.262 25.1867 106.356 25.4 105.329 25.4ZM105.209 18.54C105.809 18.54 106.342 18.4 106.809 18.12C107.276 17.8267 107.642 17.44 107.909 16.96C108.189 16.4667 108.329 15.9133 108.329 15.3C108.329 14.6867 108.189 14.1333 107.909 13.64C107.629 13.1467 107.256 12.76 106.789 12.48C106.322 12.1867 105.796 12.04 105.209 12.04C104.596 12.04 104.049 12.1867 103.569 12.48C103.089 12.76 102.709 13.1467 102.429 13.64C102.162 14.12 102.029 14.6733 102.029 15.3C102.029 15.9 102.162 16.4467 102.429 16.94C102.709 17.4333 103.089 17.8267 103.569 18.12C104.049 18.4 104.596 18.54 105.209 18.54ZM118.295 21.24C117.215 21.24 116.255 20.9933 115.415 20.5C114.588 19.9933 113.941 19.3133 113.475 18.46C113.008 17.5933 112.775 16.6267 112.775 15.56C112.775 14.4667 113.008 13.5 113.475 12.66C113.955 11.82 114.595 11.16 115.395 10.68C116.195 10.1867 117.101 9.94 118.115 9.94C118.928 9.94 119.655 10.08 120.295 10.36C120.935 10.64 121.475 11.0267 121.915 11.52C122.355 12 122.688 12.5533 122.915 13.18C123.155 13.8067 123.275 14.4733 123.275 15.18C123.275 15.3533 123.268 15.5333 123.255 15.72C123.241 15.9067 123.215 16.08 123.175 16.24H114.555V14.44H121.895L120.815 15.26C120.948 14.6067 120.901 14.0267 120.675 13.52C120.461 13 120.128 12.5933 119.675 12.3C119.235 11.9933 118.715 11.84 118.115 11.84C117.515 11.84 116.981 11.9933 116.515 12.3C116.048 12.5933 115.688 13.02 115.435 13.58C115.181 14.1267 115.081 14.7933 115.135 15.58C115.068 16.3133 115.168 16.9533 115.435 17.5C115.715 18.0467 116.101 18.4733 116.595 18.78C117.101 19.0867 117.675 19.24 118.315 19.24C118.968 19.24 119.521 19.0933 119.975 18.8C120.441 18.5067 120.808 18.1267 121.075 17.66L122.915 18.56C122.701 19.0667 122.368 19.5267 121.915 19.94C121.475 20.34 120.941 20.66 120.315 20.9C119.701 21.1267 119.028 21.24 118.295 21.24ZM125.48 21V10.18H127.64V12.36L127.44 12.04C127.68 11.3333 128.067 10.8267 128.6 10.52C129.133 10.2 129.773 10.04 130.52 10.04H131.18V12.1H130.24C129.493 12.1 128.887 12.3333 128.42 12.8C127.967 13.2533 127.74 13.9067 127.74 14.76V21H125.48ZM136.726 21.24C135.62 21.24 134.646 20.9667 133.806 20.42C132.98 19.8733 132.4 19.14 132.066 18.22L133.806 17.4C134.1 18.0133 134.5 18.5 135.006 18.86C135.526 19.22 136.1 19.4 136.726 19.4C137.26 19.4 137.693 19.28 138.026 19.04C138.36 18.8 138.526 18.4733 138.526 18.06C138.526 17.7933 138.453 17.58 138.306 17.42C138.16 17.2467 137.973 17.1067 137.746 17C137.533 16.8933 137.313 16.8133 137.086 16.76L135.386 16.28C134.453 16.0133 133.753 15.6133 133.286 15.08C132.833 14.5333 132.606 13.9 132.606 13.18C132.606 12.5267 132.773 11.96 133.106 11.48C133.44 10.9867 133.9 10.6067 134.486 10.34C135.073 10.0733 135.733 9.94 136.466 9.94C137.453 9.94 138.333 10.1867 139.106 10.68C139.88 11.16 140.426 11.8333 140.746 12.7L139.006 13.52C138.793 13 138.453 12.5867 137.986 12.28C137.533 11.9733 137.02 11.82 136.446 11.82C135.953 11.82 135.56 11.94 135.266 12.18C134.973 12.4067 134.826 12.7067 134.826 13.08C134.826 13.3333 134.893 13.5467 135.026 13.72C135.16 13.88 135.333 14.0133 135.546 14.12C135.76 14.2133 135.98 14.2933 136.206 14.36L137.966 14.88C138.86 15.1333 139.546 15.5333 140.026 16.08C140.506 16.6133 140.746 17.2533 140.746 18C140.746 18.64 140.573 19.2067 140.226 19.7C139.893 20.18 139.426 20.56 138.826 20.84C138.226 21.1067 137.526 21.24 136.726 21.24Z" fill="#464646"/>
</svg>
